HIERARCHY
ROOT Hips
{
	OFFSET -3.958830 18.904000 13.208200
	CHANNELS 6 Xposition Yposition Zposition Zrotation Yrotation Xrotation 
	JOINT LHipJoint
	{
		OFFSET 0.000000 0.000000 0.000000
		CHANNELS 3 Zrotation Yrotation Xrotation
		JOINT LeftUpLeg
		{
			OFFSET 1.800000 -1.400000 0.085000
			CHANNELS 3 Zrotation Yrotation Xrotation
			JOINT LeftLeg
			{
				OFFSET 2.215000 -6.000000 0.000000
				CHANNELS 3 Zrotation Yrotation Xrotation
				JOINT LeftFoot
				{
					OFFSET 2.500000 -6.900000 0.000000
					CHANNELS 3 Zrotation Yrotation Xrotation
					JOINT LeftToeBase
					{
						OFFSET 0.200000 -0.500000 1.950000
						CHANNELS 3 Zrotation Yrotation Xrotation
						End Site
						{
							OFFSET 0.000000 0.000000 0.000000
						}
					}
				}
			}
		}
	}
	JOINT RHipJoint
	{
		OFFSET 0.000000 0.000000 0.000000
		CHANNELS 3 Zrotation Yrotation Xrotation
		JOINT RightUpLeg
		{
			OFFSET -1.800000 -1.400000 0.085000
			CHANNELS 3 Zrotation Yrotation Xrotation
			JOINT RightLeg
			{
				OFFSET -2.215000 -6.000000 0.000000
				CHANNELS 3 Zrotation Yrotation Xrotation
				JOINT RightFoot
				{
					OFFSET -2.500000 -6.900000 0.000000
					CHANNELS 3 Zrotation Yrotation Xrotation
					JOINT RightToeBase
					{
						OFFSET -0.200000 -0.500000 1.950000
						CHANNELS 3 Zrotation Yrotation Xrotation
						End Site
						{
							OFFSET 0.000000 0.000000 0.000000
						}
					}
				}
			}
		}
	}
	JOINT LowerBack
	{
		OFFSET 0.000000 0.000000 0.000000
		CHANNELS 3 Zrotation Yrotation Xrotation
		JOINT Spine
		{
			OFFSET -0.087000 1.940000 -0.288900
			CHANNELS 3 Zrotation Yrotation Xrotation
			JOINT Spine1
			{
				OFFSET 0.000000 1.950000 0.060000
				CHANNELS 3 Zrotation Yrotation Xrotation
				JOINT Neck
				{
					OFFSET 0.000000 0.000000 0.000000
					CHANNELS 3 Zrotation Yrotation Xrotation
					JOINT Neck1
					{
						OFFSET 0.000000 1.600000 0.340000
						CHANNELS 3 Zrotation Yrotation Xrotation
						JOINT Head
						{
							OFFSET 0.000000 1.667000 -0.240000
							CHANNELS 3 Zrotation Yrotation Xrotation
							End Site
							{
								OFFSET 0.000000 0.000000 0.000000
							}
						}
					}
				}
				JOINT LeftShoulder
				{
					OFFSET 0.000000 0.000000 0.000000
					CHANNELS 3 Zrotation Yrotation Xrotation
					JOINT LeftArm
					{
						OFFSET 2.700000 1.550000 -0.730000
						CHANNELS 3 Zrotation Yrotation Xrotation
						JOINT LeftForeArm
						{
							OFFSET 5.450000 0.000000 0.000000
							CHANNELS 3 Zrotation Yrotation Xrotation
							JOINT LeftHand
							{
								OFFSET 3.450000 0.000000 0.000000
								CHANNELS 3 Zrotation Yrotation Xrotation
								JOINT LeftHandIndex1
								{
									OFFSET 0.750000 0.000000 0.000000
									CHANNELS 3 Zrotation Yrotation Xrotation
									End Site
									{
										OFFSET 0.000000 0.000000 0.000000
									}
								}
							}
						}
					}
				}
				JOINT RightShoulder
				{
					OFFSET 0.000000 0.000000 0.000000
					CHANNELS 3 Zrotation Yrotation Xrotation
					JOINT RightArm
					{
						OFFSET -2.700000 1.550000 -0.730000
						CHANNELS 3 Zrotation Yrotation Xrotation
						JOINT RightForeArm
						{
							OFFSET -5.450000 0.000000 0.000000
							CHANNELS 3 Zrotation Yrotation Xrotation
							JOINT RightHand
							{
								OFFSET -3.450000 0.000000 0.000000
								CHANNELS 3 Zrotation Yrotation Xrotation
								JOINT RightHandIndex1
								{
									OFFSET -0.750000 0.000000 0.000000
									CHANNELS 3 Zrotation Yrotation Xrotation
									End Site
									{
										OFFSET 0.000000 0.000000 0.000000
									}
								}
							}
						}
					}
				}
			}
		}
	}
}
MOTION
Frames: 14
Frame Time: 0.016667
-2.981760 16.755380 -3.647570 -5.817883 -66.720116 -10.919189 -15.578941 12.168663 6.835659 16.813318 -14.274662 -40.427295 -38.622455 27.969798 46.633267 1.846712 12.986412 0.035401 0.903890 0.567490 1.041450 18.240936 -9.314629 0.836060 -5.795984 1.006836 -16.516919 -17.698353 0.245283 45.399932 -1.201170 -5.948479 2.128903 0.083080 -0.620970 0.262800 -1.425940 -5.717004 -8.752797 -10.076053 5.948297 50.072906 11.051901 2.971767 1.521824 -4.194694 -7.436588 -9.889387 -29.180326 23.338903 41.981658 -14.551410 17.323140 -34.124840 -17.518862 -6.704406 2.081020 -17.960472 -7.768136 -9.296350 33.937227 -32.993322 -10.984212 -2.959144 3.068917 0.921020 -0.537440 0.634440 0.092630 26.222133 12.482488 5.997406 51.851730 0.083508 -16.611403 -5.593755 30.894164 -2.925882 2.421736 -1.382591 0.130630 -0.133910 -0.452750 -0.330020 
-2.811300 16.632480 -3.732230 -0.539244 -65.665809 -15.351646 -15.614057 11.663398 7.334486 20.638040 -15.805860 -44.590270 -48.844270 36.713723 49.324665 2.433206 14.779225 -0.342153 0.799750 0.446990 1.034760 18.382937 -8.886577 0.435310 -9.384178 0.477688 -20.178690 -16.551992 -0.872006 48.371702 -1.177821 -6.356770 1.970034 0.033670 -0.565200 0.272220 -0.819184 -6.256205 -9.189792 -14.317055 8.866905 49.640869 14.464296 2.726127 5.163018 -4.781374 -5.857332 -10.638390 -21.347784 20.199458 44.195524 -16.123100 19.262670 -32.217060 -14.813082 -11.370203 3.149431 -4.417836 -7.088389 -9.018351 34.296068 -28.900577 -9.094443 -3.142110 3.074559 0.899060 -0.450200 0.591040 0.042470 24.666112 16.521737 7.937737 54.632433 0.820869 -19.973996 -5.568125 40.682920 -4.429517 2.260755 -1.454661 0.075080 -0.131910 -0.397540 -0.372490 
-2.649280 16.521140 -3.779930 1.068018 -67.202429 -15.810144 -15.702091 11.314565 7.700360 25.646484 -14.379782 -47.667423 -58.987246 46.460249 50.092811 2.822440 15.559121 -0.452611 0.841590 0.496770 1.097940 18.454549 -8.353726 0.285015 -10.605910 0.483325 -23.493698 -16.188242 -1.272341 49.733780 -1.183054 -6.497027 1.906600 0.062500 -0.611930 0.242360 -0.338154 -6.752341 -9.506421 -16.872122 10.017350 48.096102 16.537287 2.297390 6.684118 -4.647680 -5.665894 -10.554804 -19.993508 20.018977 45.326269 -17.882320 20.080570 -32.049340 -13.998238 -12.069452 2.401486 8.488011 -5.611090 -8.165325 32.606413 -27.093992 -6.972145 -3.168852 3.106478 0.885530 -0.464270 0.605710 0.049190 23.407470 17.868128 9.131986 54.232940 2.181231 -21.141341 -1.270279 50.669283 -4.422984 2.206818 -1.564649 0.078950 -0.142980 -0.455720 -0.384540 
-2.456510 16.448600 -3.766580 -0.347547 -68.781568 -14.399689 -15.761905 11.138461 7.950781 29.547975 -14.001866 -47.950629 -63.606518 55.253978 53.713152 3.083948 15.993973 -0.485557 0.870200 0.534700 1.102160 18.459806 -8.074226 0.241118 -10.447905 0.030055 -25.617074 -15.240182 -2.021769 48.228193 -1.131630 -6.195801 1.999398 0.056800 -0.596270 0.313500 -0.277029 -6.849793 -9.656694 -16.395154 9.230091 49.091599 16.509840 2.176655 6.821259 -4.697616 -5.940187 -10.282549 -20.323761 20.436805 44.640119 -19.561000 20.399360 -33.266230 -12.368344 -12.685799 1.145101 19.569139 -6.351436 -7.840499 27.614609 -26.391291 -4.921592 -3.234283 3.170871 0.861090 -0.437380 0.639490 0.078200 21.682191 18.791101 9.809968 51.699751 3.122167 -19.725945 6.978631 52.588924 -1.311030 2.209661 -1.641637 0.136410 -0.156930 -0.461430 -0.353640 
-2.276340 16.448250 -3.737130 -1.706648 -70.445031 -13.186284 -15.777502 11.156072 8.054223 32.710056 -13.812141 -45.401090 -66.640934 61.622009 55.802654 3.119314 15.760409 -0.436846 0.849350 0.520260 1.063740 18.462549 -7.921136 0.190077 -10.412988 -0.536930 -26.775061 -14.778937 -2.468642 46.491075 -1.050158 -5.889627 2.070742 0.028510 -0.604830 0.357050 -0.172984 -7.053976 -9.714714 -16.074682 8.362983 49.499787 17.113365 2.266137 6.496338 -4.712880 -6.426059 -10.781207 -22.348266 21.540379 45.129604 -20.179920 20.959030 -33.020710 -11.120889 -14.047502 0.680846 23.731021 -6.585819 -8.939918 29.538958 -30.498385 -5.931632 -3.291905 3.252029 0.836800 -0.429970 0.635890 0.045870 20.641398 20.428129 10.684936 48.290718 3.517617 -18.384947 13.188880 51.799114 1.244868 2.228078 -1.688994 0.184320 -0.210520 -0.411300 -0.342780 
-2.091230 16.486020 -3.667420 -6.602220 -73.006306 -8.318564 -15.945125 11.144781 8.221161 35.654375 -13.422686 -40.740032 -64.085536 65.840862 60.492386 3.088921 15.632664 -0.374513 0.884440 0.569800 1.082550 18.278726 -7.821267 0.281500 -9.458186 -0.341319 -27.181425 -12.974930 -3.020200 43.688891 -0.936431 -5.319494 2.290866 0.081920 -0.559050 0.320470 -0.498210 -6.738738 -9.659044 -13.485246 6.124709 49.102591 15.973992 2.213072 6.900058 -5.060811 -7.064582 -11.337114 -24.836319 23.004039 44.512155 -18.913510 21.387980 -31.942130 -9.503846 -14.786100 0.698335 22.724418 -7.740015 -10.056611 32.755424 -34.619714 -7.986000 -3.301108 3.199867 0.825070 -0.405400 0.619780 0.082050 19.678272 21.297395 10.771065 43.265706 4.507379 -17.229208 15.551484 52.376600 2.395684 2.208063 -1.698549 0.151560 -0.134310 -0.436460 -0.337130 
-1.878160 16.574140 -3.592300 -6.741300 -74.586119 -7.215518 -15.953871 10.975144 8.379495 35.883247 -14.728042 -36.435370 -57.262090 68.780837 68.662079 3.212902 16.279547 -0.500137 0.854690 0.536630 1.067170 18.247277 -7.818019 0.265060 -9.763044 -0.713680 -27.803069 -11.895680 -3.122068 39.108542 -0.763697 -4.548415 2.562299 0.091310 -0.502000 0.297920 -0.672600 -6.404600 -9.677015 -12.377060 4.627736 47.979540 14.969656 1.771950 7.476362 -5.247451 -7.104825 -12.344754 -25.581936 23.364846 45.291333 -18.364070 22.049280 -29.898700 -8.175476 -17.514690 1.276831 19.349379 -9.871659 -12.273505 38.948334 -37.449895 -11.537737 -3.372529 3.120183 0.817740 -0.362890 0.582880 0.086170 18.910092 23.406020 11.053650 39.806115 6.438665 -17.089596 14.925474 53.931159 2.176973 2.177365 -1.679471 0.101080 -0.087830 -0.417810 -0.345680 
-1.647670 16.683120 -3.455620 -10.965046 -76.333018 -1.855840 -16.204604 10.739577 8.648365 35.805282 -15.468982 -32.974023 -48.529447 69.028447 77.335645 3.423965 17.270245 -0.751631 0.851690 0.541470 1.066290 17.953575 -7.917071 0.290762 -9.972394 -0.903718 -26.723701 -8.540930 -3.687745 31.849680 -0.568584 -3.415090 2.958434 0.080910 -0.523420 0.322170 -1.340262 -5.655394 -9.643590 -7.958462 1.886606 46.857567 11.611044 1.189484 9.016169 -4.467360 -7.148111 -13.471568 -26.086450 22.365712 45.679185 -19.938870 21.578260 -29.710430 -6.225141 -20.727937 1.828857 13.926850 -13.823544 -14.614372 45.635391 -39.813287 -16.234204 -3.418981 3.097661 0.794160 -0.344240 0.585550 0.067170 15.300512 25.935652 11.442136 38.765754 8.252315 -18.172811 10.892918 57.479590 0.274187 2.140333 -1.650660 0.133980 -0.124390 -0.403970 -0.348910 
-1.450250 16.790550 -3.347460 -12.143750 -77.780292 1.268446 -16.316050 10.669956 8.572227 33.503289 -15.916154 -30.000014 -40.930752 67.097627 83.477395 3.596183 18.406690 -1.014969 0.855900 0.549010 1.091650 17.769200 -8.008660 0.426190 -10.918687 -0.844820 -25.360284 -4.686993 -3.898846 24.311778 -0.417490 -2.520452 3.281343 0.114990 -0.493360 0.329560 -1.754841 -5.239500 -9.566535 -5.572559 0.696622 43.802224 9.293936 0.993543 10.965845 -4.537841 -6.825634 -13.046250 -24.605168 21.084414 44.252149 -20.555570 21.742600 -29.397990 -4.863881 -23.027004 0.938494 10.288685 -21.745292 -15.447409 45.980824 -43.678250 -18.904203 -3.461711 3.051526 0.762130 -0.285450 0.558010 0.064820 13.491379 27.234898 11.601132 36.632641 9.710537 -18.778878 5.514321 61.523135 -2.506179 2.065579 -1.638264 0.109300 -0.115260 -0.406280 -0.367370 
-1.220080 16.900200 -3.212120 -16.185214 -78.787010 7.371058 -16.489934 10.713778 8.202880 31.315269 -14.653341 -27.376800 -37.726277 62.979074 82.960594 3.519533 18.664954 -1.117296 0.882070 0.566580 1.115810 17.476109 -8.391848 0.721958 -11.074325 -0.531951 -24.783506 -2.826245 -3.969268 21.251074 -0.380498 -2.277711 3.377931 0.165060 -0.487280 0.281770 -2.668800 -4.577301 -9.356548 -0.814592 -2.229023 41.114087 4.677170 -0.360728 11.444072 -3.439362 -7.077037 -13.307091 -25.860393 21.980725 43.708224 -19.931700 21.485390 -28.770270 -6.033168 -26.066169 0.595258 5.925917 -27.953379 -14.687236 44.954150 -49.616129 -21.143680 -3.409395 2.942475 0.781980 -0.286550 0.535120 0.076150 12.330978 29.014348 11.732032 34.147018 11.808876 -18.600612 0.111300 65.972856 -5.509118 2.003991 -1.574409 0.055700 -0.070600 -0.424000 -0.391050 
-0.994570 16.985130 -3.078710 -18.081961 -77.919533 11.626928 -16.583184 10.805412 7.859562 29.875924 -14.931707 -26.246482 -30.901398 57.903794 86.548229 3.530797 19.344124 -1.345785 0.930280 0.599470 1.168170 17.307408 -8.555119 0.903814 -12.416325 -0.816628 -22.572638 0.416407 -4.152591 15.905489 -0.388822 -2.034701 3.451577 0.190020 -0.560650 0.263510 -3.095146 -4.571665 -9.225085 1.689317 -5.253904 38.395475 1.748764 -2.820628 11.035035 -1.810442 -7.207904 -13.441699 -27.163606 24.646304 44.450702 -21.576980 22.011260 -31.583640 -6.795443 -27.763922 1.004046 -0.224803 -32.413476 -12.306677 40.340452 -55.336393 -21.363951 -3.291174 2.931657 0.848860 -0.346420 0.572670 0.065160 10.130864 29.764057 10.747211 31.138010 16.081565 -17.265818 -2.969706 70.076298 -7.107222 1.988512 -1.480938 0.045920 -0.074460 -0.441830 -0.425010 
-0.797280 16.997330 -3.018290 -15.335082 -78.629224 11.192525 -16.532180 11.369477 7.243740 27.661234 -14.586481 -23.569590 -20.320710 51.176439 92.661904 3.541239 19.973138 -1.514702 0.925170 0.598320 1.136060 17.303236 -8.543086 1.096162 -13.555125 -0.822211 -24.504856 1.288766 -4.338213 16.026641 -0.366496 -2.088490 3.424754 0.202660 -0.490300 0.303520 -2.910615 -5.069058 -9.100546 0.414362 -5.817249 35.373070 1.092266 -3.991978 11.226972 -1.406052 -7.323168 -13.548867 -27.014364 26.030267 42.401013 -21.202030 22.820300 -30.440330 -5.457379 -29.762337 1.331502 -5.375940 -35.941191 -9.596502 31.368097 -57.020899 -17.717394 -3.324174 3.088307 0.816310 -0.280250 0.544670 0.087520 8.116829 31.484296 9.946798 25.799511 18.677094 -16.650043 -5.445689 77.062067 -9.528922 1.904205 -1.465605 0.043610 -0.066410 -0.420620 -0.407920 
-0.585380 17.007760 -2.952750 -14.060648 -78.197089 11.955356 -16.442705 12.054701 6.509191 26.380247 -12.732780 -22.590727 -13.128455 42.956931 92.965070 3.175420 19.342901 -1.456870 1.003040 0.677330 1.235610 17.315834 -8.850277 1.237242 -14.222115 -0.812976 -26.138967 0.726377 -4.925875 20.557910 -0.396969 -2.498374 3.252280 0.300820 -0.489390 0.282720 -2.948947 -5.335463 -8.812038 0.445386 -7.404077 32.584926 -0.994383 -5.755848 11.985528 -0.694391 -7.431582 -13.192598 -26.173880 27.071717 40.839719 -22.035430 23.369410 -30.733450 -4.103927 -30.773007 2.259802 -14.058159 -39.085446 -6.583566 16.295240 -63.862700 -12.618561 -3.138386 3.225023 0.818720 -0.245020 0.544250 0.107840 5.448771 32.002596 7.871571 22.024518 22.646677 -15.335486 -9.636459 81.636565 -13.090711 1.807814 -1.408155 -0.004630 -0.019800 -0.480220 -0.443750 
-0.360930 17.018760 -2.867480 -14.622534 -76.480455 13.608706 -16.426071 12.768661 5.992252 26.136189 -11.773974 -22.233301 -9.450755 35.766000 89.689639 2.665102 18.089186 -1.347641 1.014270 0.695160 1.300060 17.250150 -9.105708 1.235482 -14.628087 -1.095753 -25.678320 -0.113651 -5.579975 24.817673 -0.462359 -2.975865 3.014628 0.316540 -0.565900 0.314390 -2.809450 -5.981465 -8.620769 -0.196483 -9.776710 31.891093 -2.127402 -8.555961 13.007250 0.927383 -7.109139 -13.809642 -24.593700 28.801613 41.863268 -24.552430 24.126340 -33.710700 -3.619849 -32.910143 5.067013 -20.114366 -41.201288 -7.190142 4.192778 -65.410842 -7.772916 -2.921978 3.421398 0.840060 -0.250550 0.580840 0.019770 2.223910 33.425322 4.834995 16.692850 26.474582 -15.741574 -20.888835 82.314754 -20.862111 1.673627 -1.102777 0.017670 -0.053300 -0.433960 -0.496590 
